<svg xmlns="http://www.w3.org/2000/svg" width="15.999" height="11.239" viewBox="0 0 15.999 11.239">
  <path id="youtube" d="M8.051,2H8.14a44.235,44.235,0,0,1,6.11.335,2.01,2.01,0,0,1,1.415,1.42,9.055,9.055,0,0,1,.22,1.4l.01.1.022.26.008.1c.065.914.073,1.77.074,1.957v.075c0,.194-.01,1.108-.082,2.06l-.008.1-.009.1a9.906,9.906,0,0,1-.235,1.558A2.007,2.007,0,0,1,14.25,12.9a45.306,45.306,0,0,1-6.18.335H7.928c-.309,0-1.587-.006-2.927-.052l-.17-.006-.087,0-.171-.007L4.4,13.162a16.075,16.075,0,0,1-2.654-.26A2.007,2.007,0,0,1,.333,11.483,9.887,9.887,0,0,1,.1,9.925L.09,9.82l-.008-.1Q.008,8.7,0,7.68V7.557C0,7.342.01,6.6.064,5.779l.007-.1,0-.052.008-.1L.1,5.26l.01-.1a9.036,9.036,0,0,1,.22-1.4,2.007,2.007,0,0,1,1.415-1.42A16.415,16.415,0,0,1,4.4,2.074l.17-.007.172-.006.086,0L5,2.051Q6.43,2.005,7.858,2h.193ZM6.4,5.209v4.818l4.157-2.408Z" transform="translate(0 -1.999)" fill="red"/>
</svg>
